<svg width="46" height="45" viewBox="0 0 46 45" fill="none" xmlns="http://www.w3.org/2000/svg">
<path d="M14 39V10C14 9.44772 14.4477 9 15 9H22.6379C22.8719 9 23.0984 9.08202 23.2781 9.23178L34.6402 18.7002C34.8682 18.8901 35 19.1716 35 19.4684V39C35 39.5523 34.5523 40 34 40H15C14.4477 40 14 39.5523 14 39Z" fill="#3573E0"/>
<path d="M30 8.33334H15C14.1159 8.33334 13.2681 8.68453 12.643 9.30965C12.0179 9.93477 11.6667 10.7826 11.6667 11.6667V38.3333C11.6667 39.2174 12.0179 40.0652 12.643 40.6904C13.2681 41.3155 14.1159 41.6667 15 41.6667H35C35.8841 41.6667 36.7319 41.3155 37.357 40.6904C37.9821 40.0652 38.3333 39.2174 38.3333 38.3333V16.6667L30 8.33334Z" stroke="#27272A" stroke-width="2" stroke-linecap="round" stroke-linejoin="round"/>
<path d="M28.3333 8.33334V15C28.3333 15.8841 28.6845 16.7319 29.3097 17.357C29.9348 17.9821 30.7826 18.3333 31.6667 18.3333H38.3333" stroke="#27272A" stroke-width="2" stroke-linecap="round" stroke-linejoin="round"/>
<path d="M21.6667 20H18.3333" stroke="#27272A" stroke-width="2" stroke-linecap="round" stroke-linejoin="round"/>
<path d="M31.6667 26.6667H18.3333" stroke="#27272A" stroke-width="2" stroke-linecap="round" stroke-linejoin="round"/>
<path d="M31.6667 33.3333H18.3333" stroke="#27272A" stroke-width="2" stroke-linecap="round" stroke-linejoin="round"/>
<path d="M42.1196 15.1708C42.2393 14.8023 42.7607 14.8023 42.8804 15.1708L43.196 16.142C43.2495 16.3069 43.4031 16.4184 43.5764 16.4184H44.5976C44.9851 16.4184 45.1462 16.9143 44.8327 17.142L44.0066 17.7423C43.8664 17.8442 43.8077 18.0247 43.8613 18.1895L44.1768 19.1607C44.2966 19.5293 43.8748 19.8357 43.5613 19.608L42.7351 19.0077C42.5949 18.9058 42.4051 18.9058 42.2649 19.0077L41.4387 19.608C41.1252 19.8357 40.7034 19.5293 40.8232 19.1607L41.1387 18.1895C41.1923 18.0247 41.1336 17.8442 40.9934 17.7423L40.1673 17.142C39.8538 16.9143 40.0149 16.4184 40.4024 16.4184H41.4236C41.5969 16.4184 41.7505 16.3069 41.804 16.142L42.1196 15.1708Z" fill="#27272A"/>
<path d="M6.09095 25.005C6.21069 24.6365 6.73206 24.6365 6.8518 25.005L7.16737 25.9763C7.22092 26.1411 7.3745 26.2527 7.54779 26.2527H8.569C8.95649 26.2527 9.1176 26.7485 8.80411 26.9763L7.97794 27.5765C7.83774 27.6784 7.77908 27.8589 7.83263 28.0237L8.1482 28.995C8.26794 29.3635 7.84615 29.6699 7.53266 29.4422L6.70649 28.8419C6.56629 28.7401 6.37646 28.7401 6.23626 28.8419L5.41009 29.4422C5.0966 29.6699 4.67481 29.3635 4.79455 28.995L5.11012 28.0237C5.16367 27.8589 5.10501 27.6784 4.96481 27.5765L4.13864 26.9763C3.82515 26.7485 3.98626 26.2527 4.37375 26.2527H5.39496C5.56825 26.2527 5.72183 26.1411 5.77538 25.9763L6.09095 25.005Z" fill="#27272A"/>
<path d="M33.1196 1.17082C33.2393 0.802295 33.7607 0.802296 33.8804 1.17082L34.196 2.14205C34.2495 2.30686 34.4031 2.41844 34.5764 2.41844H35.5976C35.9851 2.41844 36.1462 2.91429 35.8327 3.14205L35.0066 3.7423C34.8664 3.84416 34.8077 4.0247 34.8613 4.18951L35.1768 5.16074C35.2966 5.52926 34.8748 5.83571 34.5613 5.60795L33.7351 5.0077C33.5949 4.90584 33.4051 4.90584 33.2649 5.0077L32.4387 5.60795C32.1252 5.83571 31.7034 5.52926 31.8232 5.16074L32.1387 4.18951C32.1923 4.0247 32.1336 3.84416 31.9934 3.7423L31.1673 3.14205C30.8538 2.91429 31.0149 2.41844 31.4024 2.41844H32.4236C32.5969 2.41844 32.7505 2.30686 32.804 2.14205L33.1196 1.17082Z" fill="#27272A"/>
<circle cx="37.5" cy="8.5" r="1.5" fill="#27272A"/>
<path d="M3.11958 10.1708C3.23932 9.8023 3.76068 9.8023 3.88042 10.1708L4.19599 11.142C4.24954 11.3069 4.40313 11.4184 4.57642 11.4184H5.59763C5.98511 11.4184 6.14622 11.9143 5.83274 12.142L5.00656 12.7423C4.86637 12.8442 4.80771 13.0247 4.86126 13.1895L5.17683 14.1607C5.29657 14.5293 4.87477 14.8357 4.56129 14.608L3.73511 14.0077C3.59492 13.9058 3.40508 13.9058 3.26489 14.0077L2.43871 14.608C2.12522 14.8357 1.70343 14.5293 1.82317 14.1607L2.13874 13.1895C2.19229 13.0247 2.13363 12.8442 1.99344 12.7423L1.16726 12.142C0.853775 11.9143 1.01489 11.4184 1.40238 11.4184H2.42358C2.59687 11.4184 2.75046 11.3069 2.80401 11.142L3.11958 10.1708Z" fill="#27272A"/>
<circle cx="3.5" cy="19.5" r="1.5" fill="#27272A"/>
</svg>
